<svg width="512" height="512" xmlns="http://www.w3.org/2000/svg" viewBox="0 0 512 512">
  <!-- Fundo branco -->
  <rect width="512" height="512" fill="white"/>
  
  <!-- Engrenagens (preto) -->
  <g transform="translate(100, 200)">
    <!-- Engrenagem grande cinza -->
    <g transform="translate(40, 60)">
      <circle cx="0" cy="0" r="45" fill="#666666" stroke="#333333" stroke-width="4"/>
      <circle cx="0" cy="0" r="35" fill="none" stroke="#333333" stroke-width="3"/>
      <circle cx="0" cy="0" r="20" fill="white" stroke="#333333" stroke-width="2"/>
      <!-- Dentes -->
      <rect x="-8" y="-55" width="16" height="15" fill="#666666"/>
      <rect x="-8" y="40" width="16" height="15" fill="#666666"/>
      <rect x="-55" y="-8" width="15" height="16" fill="#666666"/>
      <rect x="40" y="-8" width="15" height="16" fill="#666666"/>
      <rect x="-40" y="-40" width="12" height="12" fill="#666666" transform="rotate(-45 -34 -34)"/>
      <rect x="28" y="-40" width="12" height="12" fill="#666666" transform="rotate(45 34 -34)"/>
      <rect x="-40" y="28" width="12" height="12" fill="#666666" transform="rotate(45 -34 34)"/>
      <rect x="28" y="28" width="12" height="12" fill="#666666" transform="rotate(-45 34 34)"/>
    </g>
    
    <!-- Engrenagem média (preta) -->
    <g transform="translate(110, 30)">
      <circle cx="0" cy="0" r="35" fill="#222222" stroke="#000000" stroke-width="3"/>
      <circle cx="0" cy="0" r="27" fill="none" stroke="#000000" stroke-width="2"/>
      <circle cx="0" cy="0" r="15" fill="white" stroke="#000000" stroke-width="2"/>
      <!-- Dentes -->
      <rect x="-6" y="-42" width="12" height="12" fill="#222222"/>
      <rect x="-6" y="30" width="12" height="12" fill="#222222"/>
      <rect x="-42" y="-6" width="12" height="12" fill="#222222"/>
      <rect x="30" y="-6" width="12" height="12" fill="#222222"/>
    </g>
    
    <!-- Engrenagem pequena (preta) -->
    <g transform="translate(170, -10)">
      <circle cx="0" cy="0" r="28" fill="#222222" stroke="#000000" stroke-width="3"/>
      <circle cx="0" cy="0" r="22" fill="none" stroke="#000000" stroke-width="2"/>
      <circle cx="0" cy="0" r="12" fill="white" stroke="#000000" stroke-width="2"/>
      <!-- Dentes -->
      <rect x="-5" y="-33" width="10" height="10" fill="#222222"/>
      <rect x="-5" y="23" width="10" height="10" fill="#222222"/>
      <rect x="-33" y="-5" width="10" height="10" fill="#222222"/>
      <rect x="23" y="-5" width="10" height="10" fill="#222222"/>
    </g>
  </g>
  
  <!-- Chave inglesa (cinza) -->
  <g transform="translate(60, 220)">
    <path d="M 10,40 L 25,25 L 35,35 L 50,20 L 55,25 L 40,40 L 50,50 L 35,65 L 25,55 L 10,70 L 0,60 Z" 
          fill="#666666" stroke="#333333" stroke-width="3"/>
    <rect x="15" y="30" width="15" height="8" fill="#555555" transform="rotate(-45 22.5 34)"/>
  </g>
  
  <!-- Seta de crescimento (vermelho) -->
  <path d="M 120,100 L 180,70 L 220,110 L 280,50 L 340,30 L 360,50 L 350,60 L 380,40 L 400,60 L 370,80 L 360,70 L 340,90" 
        fill="none" stroke="#EF5350" stroke-width="18" stroke-linecap="round" stroke-linejoin="round"/>
  <polygon points="380,20 420,60 380,80" fill="#EF5350"/>
  
  <!-- Texto SAMAPE (vermelho) -->
  <text x="256" y="380" font-family="Arial, sans-serif" font-size="80" font-weight="900" 
        fill="#EF5350" text-anchor="middle" letter-spacing="-2">SAMAPE</text>
  
  <!-- Texto ÍNDIO (vermelho) -->
  <text x="256" y="450" font-family="Arial, sans-serif" font-size="70" font-weight="900" 
        fill="#EF5350" text-anchor="middle" letter-spacing="0">ÍNDIO</text>
  
  <!-- Linha sob ÍNDIO -->
  <line x1="180" y1="455" x2="332" y2="455" stroke="#EF5350" stroke-width="6"/>
</svg>
